<svg width="16" height="16" viewBox="0 0 16 16"  xmlns="http://www.w3.org/2000/svg">
  <path fill-rule="evenodd" clip-rule="evenodd" d="M2.90039 7.9998C2.90039 7.66843 3.16902 7.3998 3.50039 7.3998L12.0107 7.3998L8.68453 4.2323C8.44566 4.00263 8.43821 3.6228 8.66789 3.38394C8.89757 3.14508 9.27739 3.13763 9.51626 3.3673L13.9163 7.5673C14.0339 7.68043 14.1004 7.83659 14.1004 7.9998C14.1004 8.16301 14.0339 8.31918 13.9163 8.4323L9.51626 12.6323C9.27739 12.862 8.89757 12.8545 8.66789 12.6157C8.43821 12.3768 8.44566 11.997 8.68453 11.7673L12.0107 8.5998L3.50039 8.5998C3.16902 8.5998 2.90039 8.33117 2.90039 7.9998Z" />
</svg>