<svg width="24" height="24" viewBox="0 0 24 24" fill="none" xmlns="http://www.w3.org/2000/svg">
  <path d="M17.0036 10.4067C17.142 10.8417 16.7879 11.2491 16.3314 11.2491H12.8665C12.5985 11.2491 12.3509 11.1062 12.217 10.8742L10.4842 7.87324C10.2558 7.47765 10.4318 6.9671 10.8782 6.86997C11.2396 6.79133 11.6148 6.7499 11.9998 6.7499C14.3438 6.7499 16.329 8.2861 17.0036 10.4067Z" />
  <path d="M8.11914 8.46385C8.42703 8.12615 8.95743 8.22878 9.18594 8.62454L10.9179 11.6241C11.0519 11.8562 11.0519 12.1421 10.9179 12.3742L9.18553 15.3748C8.95701 15.7706 8.42655 15.8732 8.11867 15.5354C7.26828 14.6025 6.74976 13.3617 6.74976 11.9999C6.74976 10.6378 7.26847 9.39687 8.11914 8.46385Z" />
  <path d="M10.8775 17.1297C10.4312 17.0325 10.2552 16.522 10.4836 16.1264L12.217 13.1241C12.351 12.8921 12.5986 12.7491 12.8665 12.7491H16.3319C16.7883 12.7491 17.1424 13.1564 17.0042 13.5914C16.3301 15.7129 14.3444 17.2499 11.9998 17.2499C11.6146 17.2499 11.2391 17.2084 10.8775 17.1297Z" />
  <path fill-rule="evenodd" clip-rule="evenodd" d="M21.0005 12.7491C21.4147 12.7491 21.7505 12.4134 21.7505 11.9991C21.7505 11.5849 21.4147 11.2491 21.0005 11.2491H20.2169C20.175 10.785 20.0948 10.3319 19.9793 9.89316L20.714 9.62573C21.1033 9.48406 21.304 9.05368 21.1623 8.66444C21.0206 8.27521 20.5902 8.07452 20.201 8.21619L19.4661 8.48365C19.2692 8.06623 19.0384 7.66798 18.7771 7.29248L19.3769 6.7892C19.6942 6.52295 19.7355 6.04988 19.4693 5.73258C19.203 5.41527 18.73 5.37388 18.4127 5.64014L17.8124 6.14384C17.4867 5.82057 17.1342 5.52427 16.7585 5.2586L17.1499 4.58068C17.357 4.22196 17.2341 3.76327 16.8754 3.55616C16.5167 3.34906 16.058 3.47196 15.8509 3.83068L15.4602 4.50741C15.0462 4.31594 14.6138 4.15776 14.1662 4.03632L14.3018 3.26684C14.3738 2.85892 14.1014 2.46992 13.6935 2.39799C13.2855 2.32607 12.8966 2.59844 12.8246 3.00636L12.6887 3.77743C12.4618 3.75869 12.2322 3.74914 12.0005 3.74914C11.7687 3.74914 11.5392 3.75871 11.3121 3.77748L11.1762 3.00641C11.1042 2.59848 10.7153 2.32611 10.3073 2.39804C9.89941 2.46996 9.62704 2.85896 9.69896 3.26688L9.83468 4.03655C9.38725 4.15799 8.95481 4.31614 8.54088 4.50758L8.14994 3.8305C7.94282 3.47179 7.48412 3.3489 7.12541 3.55602C6.7667 3.76314 6.64381 4.22184 6.85093 4.58055L7.24249 5.25869C6.86698 5.52423 6.51459 5.82042 6.18897 6.14362L5.5882 5.63952C5.2709 5.37326 4.79783 5.41465 4.53158 5.73196C4.26533 6.04926 4.30671 6.52233 4.62402 6.78858L5.22424 7.29223C4.96284 7.66784 4.73185 8.06625 4.53484 8.48387L3.79981 8.21634C3.41058 8.07467 2.9802 8.27536 2.83853 8.6646C2.69686 9.05383 2.89755 9.48421 3.28678 9.62588L4.02171 9.89337C3.90623 10.3321 3.82596 10.785 3.78413 11.2491H3.00049C2.58628 11.2491 2.25049 11.5849 2.25049 11.9991C2.25049 12.4134 2.58627 12.7491 3.00049 12.7491H3.78412C3.82594 13.2132 3.9062 13.6663 4.02168 14.105L3.28653 14.3725C2.8973 14.5142 2.69661 14.9446 2.83828 15.3338C2.97995 15.7231 3.41033 15.9238 3.79956 15.7821L4.53477 15.5145C4.7318 15.9322 4.96286 16.3307 5.22436 16.7064L4.62387 17.2103C4.30656 17.4766 4.26517 17.9496 4.53143 18.2669C4.79768 18.5842 5.27074 18.6256 5.58805 18.3594L6.18916 17.855C6.51482 18.1782 6.8673 18.4744 7.24296 18.74L6.85087 19.4191C6.64377 19.7779 6.76667 20.2366 7.12539 20.4437C7.48411 20.6508 7.9428 20.5279 8.14991 20.1691L8.54137 19.4911C8.95515 19.6825 9.38747 19.8406 9.83489 19.962L9.69896 20.7329C9.62703 21.1408 9.89941 21.5298 10.3073 21.6017C10.7152 21.6737 11.1042 21.4013 11.1762 20.9934L11.3124 20.2208C11.5393 20.2396 11.7688 20.2491 12.0005 20.2491C12.2321 20.2491 12.4616 20.2396 12.6884 20.2209L12.8246 20.9934C12.8966 21.4013 13.2855 21.6737 13.6935 21.6018C14.1014 21.5299 14.3738 21.1409 14.3018 20.7329L14.1659 19.962C14.6134 19.8406 15.0457 19.6825 15.4596 19.4911L15.8509 20.169C16.058 20.5277 16.5167 20.6506 16.8754 20.4435C17.2342 20.2364 17.3571 19.7777 17.15 19.419L16.758 18.7401C17.1338 18.4744 17.4863 18.178 17.8121 17.8547L18.4128 18.3588C18.7301 18.625 19.2032 18.5836 19.4694 18.2663C19.7357 17.949 19.6943 17.4759 19.377 17.2097L18.7768 16.7061C19.0382 16.3305 19.2692 15.9322 19.4661 15.5147L20.2012 15.7822C20.5905 15.9239 21.0209 15.7232 21.1625 15.334C21.3042 14.9448 21.1035 14.5144 20.7143 14.3727L19.9792 14.1052C20.0948 13.6664 20.175 13.2133 20.2169 12.7491H21.0005ZM18.3432 9.6905C18.3372 9.67387 18.3317 9.65717 18.3269 9.64042C18.0591 8.92237 17.6725 8.26219 17.1911 7.68375C17.1843 7.67631 17.1777 7.66871 17.1712 7.66094C17.1648 7.65333 17.1586 7.64564 17.1525 7.63786C16.6623 7.0593 16.0763 6.5644 15.4191 6.17763C15.4044 6.17036 15.3898 6.16257 15.3754 6.15424C15.3606 6.14569 15.3462 6.1367 15.3322 6.12731C14.6879 5.761 13.9775 5.49764 13.2233 5.35962C13.2064 5.35781 13.1895 5.35541 13.1725 5.35242C13.1561 5.34952 13.1399 5.3461 13.1239 5.34219C12.7585 5.28099 12.3832 5.24914 12.0005 5.24914C11.6181 5.24914 11.2433 5.28087 10.8785 5.34184C10.862 5.34592 10.8453 5.34946 10.8283 5.35246C10.8107 5.35556 10.7932 5.35802 10.7757 5.35985C10.0047 5.50106 9.2802 5.77317 8.62524 6.15217C7.94733 6.54444 7.3442 7.05092 6.84207 7.6452C6.83803 7.65028 6.83391 7.65532 6.82971 7.66032C6.82758 7.66286 6.82544 7.66538 6.82328 7.66788C6.82103 7.6705 6.81875 7.6731 6.81647 7.67568C6.33173 8.25625 5.94284 8.91936 5.67384 9.64078C5.66904 9.65746 5.66363 9.6741 5.65761 9.69066C5.65158 9.70722 5.64502 9.72345 5.63797 9.73932C5.38702 10.4459 5.25049 11.2066 5.25049 11.9991C5.25049 12.7935 5.3877 13.5558 5.63972 14.2637C5.64602 14.2781 5.6519 14.2928 5.65736 14.3078C5.6628 14.3227 5.66774 14.3378 5.67219 14.3528C6.21973 15.8244 7.26589 17.0534 8.60531 17.8344C8.60909 17.8364 8.61287 17.8385 8.61663 17.8406C8.61956 17.8422 8.62248 17.8439 8.62539 17.8456C8.63241 17.8496 8.63934 17.8538 8.64617 17.858C9.30406 18.2355 10.0316 18.5053 10.8047 18.6435C10.8126 18.6447 10.8204 18.6459 10.8283 18.6473C10.8356 18.6486 10.8429 18.65 10.8501 18.6515C11.224 18.7157 11.6083 18.7491 12.0005 18.7491C12.3927 18.7491 12.7771 18.7157 13.151 18.6515C13.1581 18.65 13.1653 18.6486 13.1725 18.6474C13.1803 18.646 13.1881 18.6448 13.1958 18.6436C13.9672 18.5058 14.6933 18.2369 15.35 17.8608C15.3584 17.8555 15.3668 17.8504 15.3754 17.8454C15.3837 17.8407 15.392 17.8361 15.4003 17.8317C16.0697 17.4406 16.6658 16.9376 17.1627 16.3484L17.1713 16.338L17.1805 16.3272C17.6677 15.7448 18.0584 15.079 18.3282 14.3543C18.3328 14.3388 18.3378 14.3233 18.3435 14.3079C18.3491 14.2925 18.3552 14.2773 18.3617 14.2625C18.6134 13.555 18.7505 12.7931 18.7505 11.9991C18.7505 11.2066 18.6139 10.4459 18.363 9.73945C18.3559 9.72349 18.3493 9.70717 18.3432 9.6905Z" />
</svg>