<svg width="40" height="40" viewBox="0 0 40 40" fill="none" xmlns="http://www.w3.org/2000/svg">
  <path fill-rule="evenodd" clip-rule="evenodd" d="M20.0007 3.3335C10.7957 3.3335 3.33398 10.7952 3.33398 20.0002C3.33398 29.2052 10.7957 36.6668 20.0007 36.6668C29.2057 36.6668 36.6673 29.2052 36.6673 20.0002C36.6673 10.7952 29.2057 3.3335 20.0007 3.3335ZM20.0007 5.00016C20.0007 8.97841 18.4203 12.7937 15.6073 15.6068C12.7942 18.4198 8.9789 20.0002 5.00065 20.0002C8.9789 20.0002 12.7942 21.5805 15.6073 24.3936C18.4203 27.2066 20.0007 31.0219 20.0007 35.0002C20.0007 31.0219 21.581 27.2066 24.394 24.3936C27.2071 21.5805 31.0224 20.0002 35.0007 20.0002C31.0224 20.0002 27.2071 18.4198 24.394 15.6068C21.581 12.7937 20.0007 8.97841 20.0007 5.00016Z" />
</svg>