<svg width="100" height="100" viewBox="0 0 100 100" fill="none" xmlns="http://www.w3.org/2000/svg">
  <path d="M47.6484 12.0316C48.5312 13.2581 48.5 14.9144 47.5703 16.1019C44.9687 19.43 39.4531 26.0941 33.9687 30.1409C27.2031 35.1409 21.039 37.3831 17.8984 38.2972C16.5078 38.7034 15.0234 38.1644 14.1875 36.9847C12.125 34.0862 8.84372 27.8753 10.1328 19.0862C11.9531 6.58624 26.2734 0.554991 35.5547 3.55499C44.8359 6.55499 47.6484 12.0316 47.6484 12.0316Z" fill="#FFC107"/>
  <path d="M19.1406 35.9611C18.2266 36.3439 17.3985 35.2736 17.9844 34.4845C19.7031 32.1877 23.0391 28.422 29.125 23.5158C35.7266 18.1955 40.4063 16.3127 42.961 15.6486C43.8438 15.422 44.5235 16.4142 43.9922 17.1564C42.2656 19.5783 38.6328 24.0002 32.6875 28.2424C26.9219 32.3595 22.0313 34.7424 19.1406 35.9611Z" fill="url(#paint0_radial_439_5648)"/>
  <path d="M25.5703 6.82814C25.9297 8.37502 27.8828 8.91408 29.7735 8.59377C31.8203 8.25002 34.3985 7.96095 34.1563 5.88283C33.9063 3.73439 30.4844 3.82033 29.2188 3.89064C27.3672 4.00002 25.25 5.46095 25.5703 6.82814Z" fill="#FFEE58"/>
  <path d="M65.8203 2.90643C75.1641 0.390805 88.8828 3.60956 91.6328 19.7971C92.6797 25.9455 90.2344 31.3908 88.5234 34.2971C87.6797 35.7346 86.0312 36.5002 84.3984 36.1721C81.2109 35.5314 75.2734 33.7424 67.3203 28.7736C62.8984 26.0158 56.8828 20.6408 53.4766 17.4767C51.9375 16.0471 51.7891 13.6486 53.1719 12.0627C55.875 8.96112 60.6328 4.30487 65.8203 2.90643Z" fill="#FFC107"/>
  <path d="M57.3593 17.5783C56.8671 17.0861 57.3359 16.2579 58.0156 16.4298C61 17.1798 66.5078 18.8595 71.3984 21.9142C76.414 25.0548 81.4843 29.8283 84.0546 32.3829C84.5625 32.8829 84.0625 33.7267 83.375 33.5236C80.2343 32.6095 74.4609 30.5783 68.75 26.7267C62.9453 22.8126 59.25 19.4611 57.3593 17.5783Z" fill="url(#paint1_radial_439_5648)"/>
  <path d="M65.3047 9.25002C62.2187 10.2188 61.3515 8.03908 63 6.38283C64.1875 5.18752 69.1953 3.05471 73.539 3.96096C76.4062 4.56252 77.3047 8.69533 73.2656 8.64065C70.5156 8.60158 69.0859 8.06252 65.3047 9.25002Z" fill="#FFEE58"/>
  <path d="M85.9531 93.7891C76.2265 87.6719 69.7109 75.7578 68.5234 61.9141C67.4531 49.4063 70.4843 36.7422 72.9218 26.5703L77.9218 28.8438C75.5937 38.5781 73.7656 49.875 74.75 61.375C75.7656 73.2734 81.2031 83.4141 89.2812 88.4922L85.9531 93.7891Z" fill="#03A9F4"/>
  <path d="M47.3281 91.6328L44.7499 85.9375C47.8046 84.5547 49.5702 80.5469 48.5234 77.3672C48.0156 75.8125 46.9218 74.3281 45.7734 72.7578C44.8359 71.4766 43.8593 70.1484 43.0624 68.625C40.9843 64.6406 40.4921 59.875 41.7265 55.5547C42.3515 53.375 43.3437 51.4453 44.3124 49.5781C45.4062 47.4687 46.4296 45.4844 46.6952 43.4844C46.9374 41.6328 46.4999 39.6719 45.4843 38.1016C44.5624 36.6875 43.1406 35.4687 41.6328 34.1875C40.4921 33.2109 39.3046 32.2031 38.2187 31.0156C35.6484 28.2031 34.6484 24.8516 34.664 21.1094L39.0156 19.4609C39.0156 19.4609 39.8046 23.7109 40.8671 25.4062C41.9843 27.1797 43.6484 28.3828 45.2265 29.7266C47.0077 31.25 49.3124 32.5234 50.7265 34.7109C52.539 37.5078 53.3281 41.0078 52.8906 44.3203C52.4843 47.3984 51.1484 49.9766 49.8593 52.4688C48.9999 54.1328 48.1874 55.7031 47.7343 57.2891C46.9374 60.0859 47.2499 63.1719 48.6015 65.75C49.1796 66.8594 49.9687 67.9375 50.8124 69.0859C52.2031 70.9844 53.6406 72.9375 54.4609 75.4375C56.5156 81.6484 53.3124 88.9297 47.3281 91.6328Z" fill="#03A9F4"/>
  <path d="M8.21094 96.3359L4.51562 91.2969C28.2109 73.9375 30.7344 48.5156 29.0625 35.5625L33.7813 34.1172C35.6328 48.4375 34.4922 77.0859 8.21094 96.3359Z" fill="#F48FB1"/>
  <path d="M74.1562 57.3125C74.2969 57.4219 74.4297 57.5234 74.5703 57.6328C74.5234 55.0625 74.6484 52.4766 74.8906 49.9141C72.7969 48.1719 70.8437 46.3047 69.4375 44.1172C69.3984 44.0547 69.3672 43.9922 69.3281 43.9297C68.9062 46.7422 68.5781 49.6172 68.4219 52.5156C70.2891 54.3047 72.2891 55.8672 74.1562 57.3125Z" fill="#0076C6"/>
  <path d="M89.7891 74.4922L84.1172 71.8594C85.5625 68.75 84.3516 64.9922 82.7422 62.5156C80.6485 59.2969 77.3516 56.7344 74.1563 54.2578C70.7266 51.6016 66.8438 48.5938 64.1719 44.4297C59.2579 36.7812 60.125 27.2578 65.6641 20.0469L70.2032 22.5859C66.2188 27.7812 65.8985 35.5391 69.4297 41.0469C71.5157 44.3047 74.8047 46.8438 77.9844 49.3125C81.4219 51.9766 85.3125 54.9922 87.9844 59.1016C91.2032 64.0625 91.8985 69.9609 89.7891 74.4922Z" fill="#F44336"/>
  <path d="M7.02348 72.3359C5.85161 65.7109 10.6954 62.2812 13.2969 60.4375C13.6094 60.2188 13.9922 59.9453 14.2579 59.7344C14.2344 59.1797 13.8594 58.4844 13.1563 57.3047C12 55.3594 10.4219 52.6875 11.6329 49.2891C12.6875 46.3359 15.75 45.3594 17.7813 44.2187C19.5157 43.2422 20.7735 42.0547 21.3985 40.0703C22.125 37.7578 21.6172 31.9453 21.6172 31.9453L25.4297 29.7188C25.4297 29.7188 26.6329 35.2734 26.6329 38.1016C26.6329 46.1172 22.1875 48.1641 20.3125 49.2188C19.0157 49.9453 17.7891 50.6328 17.5235 51.3828C17.3282 51.9297 17.6016 52.5469 18.5391 54.125C19.6641 56.0156 21.1954 58.6172 20.1954 61.9375C19.711 63.5547 18.3516 64.5234 16.9141 65.5391C14.3672 67.3438 12.7266 68.7187 13.1797 71.25L7.02348 72.3359Z" fill="#F44336"/>
  <path d="M58.6328 64.2656C55.8516 63.6016 53.9531 61.9453 52.25 60.5391L56.2344 55.7188C56.2344 55.7188 57.6484 57.8203 60.75 58.7891L58.6328 64.2656Z" fill="#F44336"/>
  <path d="M53.6172 29.0938L49 26.3828L52.3437 21.0938L56.9687 23.8047L53.6172 29.0938Z" fill="#F44336"/>
  <path d="M65.6016 88.7188L59.375 84.8516L64.1797 79.5078L68.9844 84.0703L65.6016 88.7188Z" fill="#F44336"/>
  <path d="M88.9822 41.9422L85.3179 47.0054L90.7544 50.94L94.4188 45.8769L88.9822 41.9422Z" fill="#FB8C00"/>
  <path d="M41.3203 44.5781L35.8047 40.7656L38.6719 36.9609L44.1797 40.7734L41.3203 44.5781Z" fill="#F44336"/>
  <path d="M47.9922 51.2422C47.9922 51.2422 49.0547 51.2031 50.375 51.461C51.3281 49.586 52.2344 47.6328 52.7031 45.4375C51.0781 45.0703 49.7734 45.25 49.7734 45.25L47.9922 51.2422Z" fill="#0076C6"/>
  <path d="M55.4062 51.9765C53.2266 50.1172 49.5859 50.25 49.5859 50.25L51.3594 44.2578C51.3594 44.2578 55.3906 43.6953 58.1094 46.5312L55.4062 51.9765Z" fill="#FB8C00"/>
  <path d="M9.29475 76.4549L3.62585 76.8008L4.00648 83.0389L9.67538 82.693L9.29475 76.4549Z" fill="#FB8C00"/>
  <path d="M33.7266 75.7109L30.125 70.6016C31.7188 69.4766 33.1797 68.1406 34.4453 66.6484L39.2109 70.6953C37.5937 72.5938 35.75 74.2813 33.7266 75.7109Z" fill="#FB8C00"/>
  <path d="M33.7734 90.1484C31.8984 88.6016 29.9141 87.1641 27.8672 85.8672L31.2109 80.5859C33.4766 82.0156 35.6719 83.6094 37.75 85.3203L33.7734 90.1484Z" fill="#F44336"/>
  <path d="M68.6328 62.5703C68.8516 65.1562 69.1563 67.0156 69.7344 69.4375L73.8516 66.1328L69.8438 61.125L68.6328 62.5703Z" fill="#0076C6"/>
  <path d="M68.3043 61.5101L62.0078 66.5581L65.9172 71.4344L72.2136 66.3864L68.3043 61.5101Z" fill="#FFC107"/>
  <path d="M59.8594 97.8594C58.7656 95.8516 57.5391 93.8906 56.2109 92.0313L61.2969 88.3984C62.7734 90.4609 64.1328 92.6406 65.3438 94.875L59.8594 97.8594Z" fill="#FB8C00"/>
  <defs>
    <radialGradient id="paint0_radial_439_5648" cx="0" cy="0" r="1" gradientUnits="userSpaceOnUse" gradientTransform="translate(30.9861 25.8328) scale(11.7986 11.7986)">
      <stop offset="0.3755" stop-color="#AF5700"/>
      <stop offset="1" stop-color="#8F4700"/>
    </radialGradient>
    <radialGradient id="paint1_radial_439_5648" cx="0" cy="0" r="1" gradientUnits="userSpaceOnUse" gradientTransform="translate(70.7038 24.9767) scale(16.5812)">
      <stop offset="0.3755" stop-color="#AF5700"/>
      <stop offset="1" stop-color="#8F4700"/>
    </radialGradient>
  </defs>
</svg>