<svg width="20" height="20" viewBox="0 0 20 20" fill="none" xmlns="http://www.w3.org/2000/svg">
  <path d="M17.4967 9.75984L18.3292 9.73317C18.3252 9.60576 18.292 9.48098 18.2322 9.36842C18.1723 9.25586 18.0875 9.15853 17.9841 9.08392C17.8808 9.0093 17.7617 8.95939 17.636 8.93802C17.5103 8.91666 17.3815 8.9244 17.2592 8.96067L17.4967 9.75984ZM10.2409 2.504L11.0392 2.74067C11.0755 2.61847 11.0833 2.48957 11.0619 2.3639C11.0405 2.23824 10.9906 2.11914 10.916 2.01579C10.8414 1.91244 10.7441 1.82758 10.6315 1.76775C10.5189 1.70792 10.3942 1.67471 10.2667 1.67067L10.2409 2.504ZM17.2592 8.96067C16.7964 9.09773 16.3161 9.16706 15.8334 9.1665V10.8332C16.4767 10.8337 17.1167 10.741 17.7334 10.5582L17.2592 8.96067ZM15.8334 9.1665C14.5073 9.1665 13.2356 8.63972 12.2979 7.70204C11.3602 6.76436 10.8334 5.49259 10.8334 4.1665H9.16675C9.16675 5.93461 9.86913 7.63031 11.1194 8.88055C12.3696 10.1308 14.0653 10.8332 15.8334 10.8332V9.1665ZM10.8334 4.1665C10.8334 3.66984 10.9059 3.19067 11.0392 2.74067L9.44175 2.2665C9.25889 2.88325 9.16627 3.52322 9.16675 4.1665H10.8334ZM10.0001 3.33317C10.0717 3.33317 10.1434 3.334 10.2142 3.3365L10.2667 1.67067C10.1779 1.66789 10.089 1.6665 10.0001 1.6665V3.33317ZM3.33341 9.99984C3.33341 8.23173 4.03579 6.53603 5.28604 5.28579C6.53628 4.03555 8.23197 3.33317 10.0001 3.33317V1.6665C5.39758 1.6665 1.66675 5.39734 1.66675 9.99984H3.33341ZM10.0001 16.6665C8.23197 16.6665 6.53628 15.9641 5.28604 14.7139C4.03579 13.4636 3.33341 11.7679 3.33341 9.99984H1.66675C1.66675 14.6023 5.39758 18.3332 10.0001 18.3332V16.6665ZM16.6667 9.99984C16.6667 11.7679 15.9644 13.4636 14.7141 14.7139C13.4639 15.9641 11.7682 16.6665 10.0001 16.6665V18.3332C14.6026 18.3332 18.3334 14.6023 18.3334 9.99984H16.6667ZM16.6634 9.78567C16.6659 9.8565 16.6667 9.92817 16.6667 9.99984H18.3334C18.3334 9.91067 18.3317 9.8215 18.3292 9.73317L16.6634 9.78567Z" />
</svg>