<svg
  width="49"
  height="48"
  viewBox="0 0 49 48"
  fill="none"
  xmlns="http://www.w3.org/2000/svg"
>
  <path
    d="M39.04 10.6601C36.38 9.42009 33.5 8.52009 30.5 8.00009C30.4737 7.99925 30.4475 8.00419 30.4233 8.01455C30.3992 8.02492 30.3775 8.04047 30.36 8.06009C30 8.72009 29.58 9.58009 29.3 10.2401C26.118 9.76009 22.882 9.76009 19.7 10.2401C19.42 9.56009 19 8.72009 18.62 8.06009C18.6 8.02009 18.54 8.00009 18.48 8.00009C15.48 8.52009 12.62 9.42009 9.94 10.6601C9.92 10.6601 9.9 10.6801 9.88 10.7001C4.44 18.8401 2.94 26.7601 3.68 34.6001C3.68 34.6401 3.7 34.6801 3.74 34.7001C7.34 37.3401 10.8 38.9401 14.22 40.0001C14.28 40.0201 14.34 40.0001 14.36 39.9601C15.16 38.8601 15.88 37.7001 16.5 36.4801C16.54 36.4001 16.5 36.3201 16.42 36.3001C15.28 35.8601 14.2 35.3401 13.14 34.7401C13.06 34.7001 13.06 34.5801 13.12 34.5201C13.34 34.3601 13.56 34.1801 13.78 34.0201C13.82 33.9801 13.88 33.9801 13.92 34.0001C20.8 37.1401 28.22 37.1401 35.02 34.0001C35.06 33.9801 35.12 33.9801 35.16 34.0201C35.38 34.2001 35.6 34.3601 35.82 34.5401C35.9 34.6001 35.9 34.7201 35.8 34.7601C34.76 35.3801 33.66 35.8801 32.52 36.3201C32.44 36.3401 32.42 36.4401 32.44 36.5001C33.08 37.7201 33.8 38.8801 34.58 39.9801C34.64 40.0001 34.7 40.0201 34.76 40.0001C38.2 38.9401 41.66 37.3401 45.26 34.7001C45.3 34.6801 45.32 34.6401 45.32 34.6001C46.2 25.5401 43.86 17.6801 39.12 10.7001C39.1 10.6801 39.08 10.6601 39.04 10.6601ZM17.54 29.8201C15.48 29.8201 13.76 27.9201 13.76 25.5801C13.76 23.2401 15.44 21.3401 17.54 21.3401C19.66 21.3401 21.34 23.2601 21.32 25.5801C21.32 27.9201 19.64 29.8201 17.54 29.8201ZM31.48 29.8201C29.42 29.8201 27.7 27.9201 27.7 25.5801C27.7 23.2401 29.38 21.3401 31.48 21.3401C33.6 21.3401 35.28 23.2601 35.26 25.5801C35.26 27.9201 33.6 29.8201 31.48 29.8201Z"
  />
</svg>
