<svg
  width="14"
  height="15"
  viewBox="0 0 14 15"
  fill="none"
  xmlns="http://www.w3.org/2000/svg"
>
  <path
    d="M5.05749 13.7708H1.16666C0.92749 13.7708 0.729156 13.5725 0.729156 13.3333V9.83329C0.729156 8.94663 1.44666 8.22913 2.33332 8.22913H5.05749C5.29666 8.22913 5.49499 8.42746 5.49499 8.66663V13.3333C5.49499 13.5725 5.29666 13.7708 5.05749 13.7708ZM1.60416 12.8958H4.61999V9.10413H2.33332C1.93082 9.10413 1.60416 9.43079 1.60416 9.83329V12.8958Z"
  />
  <path
    d="M8.94259 13.7709H5.05176C4.81259 13.7709 4.61426 13.5725 4.61426 13.3334V7.50004C4.61426 6.61337 5.33176 5.89587 6.21842 5.89587H7.77593C8.66259 5.89587 9.38009 6.61337 9.38009 7.50004V13.3334C9.38009 13.5725 9.18759 13.7709 8.94259 13.7709ZM5.49509 12.8959H8.51092V7.50004C8.51092 7.09754 8.18426 6.77087 7.78176 6.77087H6.22426C5.82176 6.77087 5.49509 7.09754 5.49509 7.50004V12.8959Z"
  />
  <path
    d="M12.8334 13.7708H8.94254C8.70337 13.7708 8.50504 13.5725 8.50504 13.3333V10.4166C8.50504 10.1775 8.70337 9.97913 8.94254 9.97913H11.6667C12.5534 9.97913 13.2709 10.6966 13.2709 11.5833V13.3333C13.2709 13.5725 13.0725 13.7708 12.8334 13.7708ZM9.38004 12.8958H12.3959V11.5833C12.3959 11.1808 12.0692 10.8541 11.6667 10.8541H9.38004V12.8958Z"
  />
  <path
    d="M7.99159 5.3708C7.85159 5.3708 7.67659 5.32996 7.47826 5.21329L6.99993 4.92747L6.52743 5.20747C6.04909 5.49331 5.73409 5.32414 5.61743 5.24247C5.50076 5.1608 5.24993 4.90414 5.37243 4.36747L5.48326 3.88329L5.08659 3.48663C4.84159 3.24163 4.75409 2.94996 4.84159 2.68163C4.92909 2.4133 5.16826 2.22663 5.50659 2.16829L6.01409 2.0808L6.29993 1.50914C6.61493 0.884974 7.37909 0.884974 7.68826 1.50914L7.97409 2.0808L8.48159 2.16829C8.81993 2.22663 9.06493 2.4133 9.14659 2.68163C9.23409 2.94996 9.14076 3.24163 8.90159 3.48663L8.50493 3.88329L8.61576 4.36747C8.73826 4.90997 8.48743 5.16081 8.37076 5.24831C8.31826 5.29498 8.18409 5.3708 7.99159 5.3708ZM6.99993 4.04663C7.13993 4.04663 7.27993 4.08164 7.39659 4.15164L7.72326 4.34413L7.65326 4.02913C7.59493 3.78413 7.68243 3.48663 7.86326 3.3058L8.16076 3.00829L7.79326 2.94414C7.55993 2.9033 7.33243 2.73413 7.22743 2.52413L6.99993 2.08663L6.77826 2.52413C6.67326 2.73413 6.44576 2.9033 6.21243 2.94414L5.84493 3.00247L6.14243 3.29996C6.32326 3.48079 6.40493 3.77831 6.35243 4.02331L6.28243 4.33829L6.60909 4.1458C6.71993 4.0758 6.85993 4.04663 6.99993 4.04663Z"
  />
</svg>
