<svg width="14" height="14" viewBox="0 0 14 14" xmlns="http://www.w3.org/2000/svg">
  <g clip-path="url(#clip0_1321_1713)">
    <path d="M13.0007 6.4658H12.3473C11.9787 6.4658 11.6807 6.70513 11.6807 6.9998C11.6807 7.2938 11.9787 7.53246 12.3473 7.53246H13.0007C13.3687 7.53246 13.6673 7.29446 13.6673 6.9998C13.6673 6.7058 13.368 6.4658 13.0007 6.4658ZM7.00065 3.33313C6.51872 3.33163 6.04125 3.42545 5.59571 3.60919C5.15017 3.79293 4.74537 4.06295 4.40459 4.40373C4.06381 4.74451 3.79378 5.14932 3.61004 5.59485C3.42631 6.04039 3.33249 6.51786 3.33398 6.9998C3.33398 9.0338 4.96665 10.6665 7.00065 10.6665C9.03398 10.6665 10.6673 9.0338 10.6673 6.9998C10.6673 4.9658 9.03332 3.33313 7.00065 3.33313ZM7.00065 9.66646C5.52665 9.66646 4.33398 8.47246 4.33398 6.9998C4.33398 5.5258 5.52665 4.33313 7.00065 4.33313C7.70789 4.33313 8.38617 4.61408 8.88627 5.11418C9.38637 5.61427 9.66732 6.29255 9.66732 6.9998C9.66732 7.70704 9.38637 8.38532 8.88627 8.88541C8.38617 9.38551 7.70789 9.66646 7.00065 9.66646ZM2.33398 6.9998C2.33398 6.7058 2.03465 6.4658 1.66732 6.4658H1.00065C0.631984 6.4658 0.333984 6.70513 0.333984 6.9998C0.333984 7.2938 0.631984 7.53246 1.00065 7.53246H1.66732C2.03465 7.53246 2.33398 7.2938 2.33398 6.9998ZM7.00065 2.33313C7.29465 2.33313 7.53332 2.03513 7.53332 1.66646V0.999797C7.53332 0.63113 7.29465 0.33313 7.00065 0.33313C6.70598 0.33313 6.46665 0.63113 6.46665 0.999797V1.66646C6.46665 2.03513 6.70598 2.33313 7.00065 2.33313ZM7.00065 11.6665C6.70598 11.6665 6.46665 11.9645 6.46665 12.3331V12.9998C6.46665 13.3685 6.70598 13.6665 7.00065 13.6665C7.29465 13.6665 7.53332 13.3685 7.53332 12.9998V12.3331C7.53332 11.9645 7.29465 11.6665 7.00065 11.6665ZM11.9107 2.8438C12.1713 2.58313 12.2133 2.20313 12.0053 1.99513C11.7973 1.78713 11.4167 1.8298 11.1573 2.09046L10.6906 2.55646C10.43 2.81713 10.388 3.19713 10.596 3.40513C10.804 3.61313 11.1847 3.57046 11.4447 3.3098L11.9107 2.8438ZM2.55665 10.6885L2.08998 11.1558C1.82932 11.4165 1.78732 11.7951 1.99532 12.0031C2.20332 12.2111 2.58398 12.1698 2.84332 11.9091L3.30998 11.4431C3.57065 11.1825 3.61265 10.8025 3.40465 10.5938C3.19665 10.3851 2.81598 10.4291 2.55665 10.6885ZM2.84398 2.0898C2.58398 1.82913 2.20332 1.78646 1.99532 1.99446C1.78732 2.20246 1.82998 2.58313 2.08932 2.8438L2.55598 3.3098C2.81665 3.57046 3.19598 3.61313 3.40398 3.40513C3.61198 3.19713 3.56998 2.81646 3.30998 2.55646L2.84398 2.0898ZM10.69 11.4438L11.1566 11.9098C11.4173 12.1705 11.7967 12.2118 12.0047 12.0051C12.2127 11.7971 12.1707 11.4165 11.91 11.1565L11.444 10.6905C11.1833 10.4298 10.8033 10.3871 10.5947 10.5951C10.386 10.8031 10.4293 11.1831 10.69 11.4438Z" />
  </g>
  <defs>
    <clipPath id="clip0_1321_1713">
      <rect width="13.3333" height="13.3333" transform="translate(0.333984 0.333313)"/>
    </clipPath>
  </defs>
</svg>