<svg width="20" height="20" viewBox="0 0 20 20" fill="none" xmlns="http://www.w3.org/2000/svg">
  <path d="M14.1667 2.78357C15.4236 3.50928 16.4692 4.55067 17.1999 5.80465C17.9307 7.05863 18.3212 8.48171 18.3329 9.93302C18.3447 11.3843 17.9771 12.8135 17.2668 14.0792C16.5564 15.3448 15.5278 16.4029 14.2828 17.1488C13.0378 17.8948 11.6196 18.3026 10.1685 18.332C8.71744 18.3613 7.28387 18.0112 6.00971 17.3163C4.73555 16.6213 3.66497 15.6057 2.90397 14.3698C2.14297 13.134 1.71792 11.7208 1.67091 10.2702L1.66675 10.0002L1.67091 9.73024C1.71758 8.29106 2.13637 6.88854 2.88645 5.6594C3.63652 4.43026 4.69229 3.41645 5.95082 2.7168C7.20936 2.01716 8.6277 1.65557 10.0676 1.66727C11.5075 1.67897 12.9198 2.06357 14.1667 2.78357ZM10.0001 11.0002C9.50126 11.0002 9.00745 11.0997 8.54755 11.2928C8.08766 11.486 7.67092 11.769 7.32175 12.1252C7.24332 12.203 7.18112 12.2955 7.13877 12.3975C7.09643 12.4995 7.07478 12.6089 7.07509 12.7194C7.07539 12.8298 7.09764 12.9391 7.14055 13.0408C7.18346 13.1426 7.24616 13.2348 7.32502 13.3121C7.40388 13.3894 7.49732 13.4503 7.59991 13.4912C7.7025 13.5321 7.8122 13.5522 7.92262 13.5503C8.03304 13.5484 8.14198 13.5246 8.24312 13.4802C8.34426 13.4359 8.43557 13.3719 8.51175 13.2919C8.70573 13.0939 8.93729 12.9365 9.19286 12.8291C9.44842 12.7217 9.72286 12.6664 10.0001 12.6664C10.2773 12.6664 10.5517 12.7217 10.8073 12.8291C11.0629 12.9365 11.2944 13.0939 11.4884 13.2919C11.6439 13.446 11.8538 13.5328 12.0728 13.5334C12.2917 13.534 12.5021 13.4484 12.6585 13.2951C12.8148 13.1418 12.9046 12.9332 12.9083 12.7143C12.912 12.4954 12.8294 12.2838 12.6784 12.1252C12.3292 11.769 11.9125 11.486 11.4526 11.2928C10.9927 11.0997 10.4989 11.0002 10.0001 11.0002ZM7.50842 7.50024L7.40258 7.50607C7.20004 7.53016 7.01337 7.6277 6.87793 7.78021C6.74248 7.93271 6.66768 8.1296 6.66768 8.33357C6.66768 8.53754 6.74248 8.73442 6.87793 8.88693C7.01337 9.03944 7.20004 9.13698 7.40258 9.16107L7.50008 9.1669L7.60592 9.16107C7.80846 9.13698 7.99513 9.03944 8.13057 8.88693C8.26601 8.73442 8.34082 8.53754 8.34082 8.33357C8.34082 8.1296 8.26601 7.93271 8.13057 7.78021C7.99513 7.6277 7.80846 7.53016 7.60592 7.50607L7.50842 7.50024ZM12.5084 7.50024L12.4026 7.50607C12.2 7.53016 12.0134 7.6277 11.8779 7.78021C11.7425 7.93271 11.6677 8.1296 11.6677 8.33357C11.6677 8.53754 11.7425 8.73442 11.8779 8.88693C12.0134 9.03944 12.2 9.13698 12.4026 9.16107L12.5001 9.1669L12.6059 9.16107C12.8085 9.13698 12.9951 9.03944 13.1306 8.88693C13.266 8.73442 13.3408 8.53754 13.3408 8.33357C13.3408 8.1296 13.266 7.93271 13.1306 7.78021C12.9951 7.6277 12.8085 7.53016 12.6059 7.50607L12.5084 7.50024Z" />
</svg>